<?xml version="1.0" encoding="UTF-8"?>
<!-- Generator: visioncortex VTracer 0.6.2 -->
<svg version="1.1" xmlns="http://www.w3.org/2000/svg" width="1280" height="1280">
<path d="M0 0 C5.57508716 0.46096665 10.15731622 1.57505113 15.25390625 3.88671875 C17.72157212 4.88063973 20.10433514 5.61603435 22.66015625 6.3359375 C28.54456642 8.0681825 34.01224804 10.49797732 39.56640625 13.08203125 C41.1428894 13.81329224 41.1428894 13.81329224 42.7512207 14.55932617 C71.56010306 28.08615593 97.99876494 46.2133863 121.484375 67.68359375 C122.89510823 68.95986981 124.31220502 70.22971421 125.75805664 71.46606445 C131.317676 76.23013803 136.52164263 81.32158559 141.68481445 86.50756836 C143.12665846 87.9547751 144.57377741 89.39655151 146.02148438 90.83789062 C151.24882284 96.06187443 156.27008371 101.39700287 161.06640625 107.01953125 C161.39640625 107.34953125 161.72640625 107.67953125 162.06640625 108.01953125 C170.63261862 107.8674621 179.15652133 106.05925514 187.56640625 104.58203125 C210.04490099 100.71913171 232.4100906 98.87316098 255.20703125 98.81640625 C256.39188236 98.81216518 256.39188236 98.81216518 257.60066986 98.80783844 C261.79839896 98.7929726 265.99609493 98.78366936 270.19384766 98.77929688 C273.57319202 98.7749581 276.95227446 98.76122848 280.33154297 98.73828125 C298.44894751 98.61795551 316.44154543 98.8480437 334.50390625 100.37109375 C335.2263578 100.43117363 335.94880936 100.49125351 336.69315338 100.55315399 C349.57787404 101.65259768 362.26689515 103.62602604 374.98828125 105.93359375 C376.04877686 106.11680176 377.10927246 106.30000977 378.2019043 106.48876953 C381.06640625 107.01953125 381.06640625 107.01953125 383.40942383 107.64013672 C385.68511789 108.25896031 385.68511789 108.25896031 389.06640625 108.01953125 C391.96867319 106.08121725 394.03144685 103.56136597 396.25390625 100.89453125 C397.64345875 99.3261619 399.03688825 97.76122141 400.43359375 96.19921875 C401.17448242 95.36100586 401.91537109 94.52279297 402.67871094 93.65917969 C406.92670475 88.96293132 411.40188645 84.49615085 415.87890625 80.01953125 C417.1486731 78.73151611 417.1486731 78.73151611 418.4440918 77.41748047 C424.33405396 71.51323476 430.55923552 66.22702331 437.06640625 61.01953125 C438.31416124 59.97120179 439.55820566 58.91842432 440.796875 57.859375 C469.25184724 33.81596315 511.06658722 5.35283918 549.06640625 0.01953125 C551.85546875 0.45703125 551.85546875 0.45703125 554.06640625 1.01953125 C556.67254877 12.67786028 558.64566309 24.36052068 560.19140625 36.20703125 C560.34963867 37.39627197 560.50787109 38.5855127 560.67089844 39.81079102 C563.42017784 61.58456513 564.44578806 83.26814695 564.37890625 105.20703125 C564.37617203 107.07816086 564.37617203 107.07816086 564.37338257 108.98709106 C564.32792626 127.49165982 563.97399998 145.70878244 561.06640625 164.01953125 C560.80899658 165.67057861 560.80899658 165.67057861 560.54638672 167.35498047 C556.97399515 189.45017443 551.20910779 210.74992338 541.80322266 231.08862305 C540.60010891 234.24151457 539.71507782 236.81355973 540.68041992 240.12719727 C541.0282251 240.83545654 541.37603027 241.54371582 541.734375 242.2734375 C542.323396 243.5265271 542.323396 243.5265271 542.92431641 244.80493164 C543.36308105 245.72137451 543.8018457 246.63781738 544.25390625 247.58203125 C555.78919523 272.92696919 563.40443987 300.04570914 570.06640625 327.01953125 C570.35821777 328.1792041 570.6500293 329.33887695 570.95068359 330.53369141 C580.71034942 369.52347491 586.78027616 409.21175469 592.06640625 449.01953125 C592.17440552 449.82972717 592.28240479 450.6399231 592.39367676 451.47467041 C592.68750225 453.69349775 592.97601539 455.91292628 593.26171875 458.1328125 C593.41914551 459.35395752 593.57657227 460.57510254 593.73876953 461.83325195 C594.02276711 464.59513896 594.1337832 467.24693715 594.06640625 470.01953125 C592.84953125 469.75140625 591.63265625 469.48328125 590.37890625 469.20703125 C589.55390625 469.02785156 588.72890625 468.84867188 587.87890625 468.6640625 C585.93285388 468.21809216 583.99536849 467.73364227 582.06640625 467.21875 C561.42795382 461.88209134 543.07318792 466.69446946 524.8203125 476.8203125 C520.77149947 479.18267431 520.77149947 479.18267431 517.06640625 482.01953125 C517.06640625 486.88516992 518.92197441 489.29303142 521.56640625 493.14453125 C526.06640625 499.77966639 526.06640625 499.77966639 526.06640625 502.01953125 C526.72640625 502.34953125 527.38640625 502.67953125 528.06640625 503.01953125 C526.8148877 503.12442871 526.8148877 503.12442871 525.53808594 503.23144531 C509.15340123 504.63327116 493.11246873 506.2608222 477.06640625 510.01953125 C477.06640625 513.90067739 478.09150965 514.40087658 480.75390625 517.14453125 C517.36140219 556.68753393 541.66694852 609.65168388 548.06640625 663.01953125 C548.16284424 663.77645264 548.25928223 664.53337402 548.35864258 665.31323242 C549.40043663 674.74974623 549.17567948 684.22795171 549.12890625 693.70703125 C549.12388043 695.48762895 549.11931944 697.26822802 549.11523438 699.04882812 C549.10431625 703.37243034 549.08711146 707.69596528 549.06640625 712.01953125 C549.98643433 712.45845703 549.98643433 712.45845703 550.92504883 712.90625 C569.41653049 722.51988087 582.38663602 745.92755506 588.75097656 765.07958984 C595.68473222 787.72879323 593.69094974 813.26691161 583.82421875 834.7109375 C579.07500525 843.65001268 573.03458929 851.43406878 566.109375 858.80078125 C563.97278737 861.12120529 562.01115648 863.53724331 560.06640625 866.01953125 C560.5253125 866.69757812 560.98421875 867.375625 561.45703125 868.07421875 C568.5225029 878.79117364 572.24332319 888.01594199 572.25390625 900.83203125 C572.26615234 901.60095703 572.27839844 902.36988281 572.29101562 903.16210938 C572.29391602 904.30776367 572.29391602 904.30776367 572.296875 905.4765625 C572.30098389 906.1569458 572.30509277 906.8373291 572.30932617 907.53833008 C571.96119536 911.09416272 570.93294571 914.5533734 570.06640625 918.01953125 C515.61640625 918.01953125 461.16640625 918.01953125 405.06640625 918.01953125 C405.72640625 919.99953125 406.38640625 921.97953125 407.06640625 924.01953125 C408.14069071 931.78055937 408.26533698 941.15442191 404.48046875 948.15234375 C401.43552707 952.17301259 397.59685018 955.75430928 393.06640625 958.01953125 C390.65212303 958.14371089 388.23385193 958.19518103 385.81640625 958.20703125 C384.511875 958.22121094 383.20734375 958.23539063 381.86328125 958.25 C378.06640625 958.01953125 378.06640625 958.01953125 374.89453125 956.89453125 C371.44089068 955.82600157 370.27298868 956.29554384 367.06640625 957.83203125 C357.8756553 961.90006856 348.94741844 962.09794882 339.3828125 959.08984375 C336.91042115 957.94745719 335.69450639 956.76622706 333.87890625 954.76953125 C331.31808869 952.28778882 330.27264544 952.02513685 326.6171875 951.92578125 C323.98586474 952.15618563 321.35672972 952.4130024 318.73046875 952.6953125 C312.3810538 953.25714772 307.48650026 952.43055226 302.37890625 948.51953125 C296.59106874 943.00152299 292.3605374 936.10813779 292.06640625 928.01953125 C292.06640625 925.04953125 292.06640625 922.07953125 292.06640625 919.01953125 C281.17640625 918.68953125 270.28640625 918.35953125 259.06640625 918.01953125 C259.06640625 922.96953125 259.06640625 927.91953125 259.06640625 933.01953125 C256.81160918 940.95641694 253.36924488 946.8225524 246.16796875 951.1640625 C240.41528159 953.50576973 233.89041716 953.24766374 227.87890625 952.20703125 C224.96719467 951.83561607 223.59133565 951.72257119 221.015625 953.1796875 C219.70290007 954.250387 218.4060742 955.34084469 217.125 956.44921875 C211.29038064 960.89991511 203.20186416 961.9322061 196.06640625 961.01953125 C193.25195321 960.35422358 190.4916774 959.57841233 187.71875 958.7578125 C183.06989269 957.46380067 178.737678 956.46244067 174.06640625 958.01953125 C159.20773958 959.15819792 159.20773958 959.15819792 153.06640625 954.01953125 C146.70494861 947.00360265 143.71075683 941.61289809 143.87890625 932.01953125 C143.87955078 931.32085938 143.88019531 930.6221875 143.88085938 929.90234375 C143.91279408 926.14114558 144.27275745 922.68654496 145.06640625 919.01953125 C144.24457446 919.01806469 143.42274267 919.01659813 142.57600689 919.01508713 C122.59643991 918.97806594 102.61704319 918.91911374 82.63761425 918.83562851 C72.97577313 918.79578707 63.31401406 918.76342058 53.65209961 918.74853516 C45.23262073 918.73554502 36.813322 918.70864821 28.39394456 918.66491818 C23.93422443 918.64224373 19.47472698 918.62662413 15.01494408 918.6276474 C10.81974248 918.6283905 6.62503426 918.61058174 2.42996025 918.57836342 C0.8880259 918.56982428 -0.65396354 918.56814156 -2.19591141 918.57372856 C-4.29739392 918.58033038 -6.39728894 918.56254396 -8.49861145 918.53851318 C-9.67574109 918.53482601 -10.85287073 918.53113884 -12.06567097 918.52733994 C-14.93359375 918.01953125 -14.93359375 918.01953125 -16.7940321 916.129673 C-21.24686957 907.88429353 -19.848156 895.03452074 -17.37109375 886.26953125 C-15.41994805 880.62664943 -12.63896384 875.69085764 -9.421875 870.67578125 C-7.87384939 867.9129009 -6.92350666 866.19696376 -6.93359375 863.01953125 C-8.90958495 860.50197161 -8.90958495 860.50197161 -11.74609375 858.14453125 C-26.88349096 844.04033694 -38.08722289 822.57196086 -39.09228516 801.72851562 C-39.2611999 794.15533181 -39.16060773 786.59044736 -38.93359375 779.01953125 C-39.66787598 778.71660156 -40.4021582 778.41367187 -41.15869141 778.1015625 C-66.3770716 767.65251254 -90.4000819 755.99052314 -111.93359375 739.01953125 C-112.92617188 738.23835937 -113.91875 737.4571875 -114.94140625 736.65234375 C-130.22979728 724.34497604 -145.06755754 710.71266788 -156.93359375 695.01953125 C-157.40442383 694.40867676 -157.87525391 693.79782227 -158.36035156 693.16845703 C-171.62357555 675.88113578 -182.18935659 656.95379468 -190.93359375 637.01953125 C-191.35125 636.06949219 -191.76890625 635.11945312 -192.19921875 634.140625 C-194.33549747 629.04703507 -195.82972569 623.91011096 -197.2109375 618.56640625 C-198.16104153 615.21793149 -199.50921894 612.19200242 -200.93359375 609.01953125 C-201.28836629 607.69174161 -201.6198046 606.35759898 -201.93359375 605.01953125 C-202.35541773 603.4436476 -202.77872499 601.8681606 -203.203125 600.29296875 C-206.03621829 589.56452094 -208.4898359 578.86529271 -210.18359375 567.89453125 C-210.33417236 566.93337402 -210.48475098 565.9722168 -210.63989258 564.98193359 C-213.40525104 546.07055017 -214.30523833 527.23798448 -214.24609375 508.14453125 C-214.24560028 507.04187927 -214.24510681 505.93922729 -214.24459839 504.80316162 C-214.21741703 484.87868911 -213.88372805 464.62227262 -209.93359375 445.01953125 C-209.75922619 443.68829258 -209.60159859 442.35475217 -209.4609375 441.01953125 C-201.87422683 375.18471784 -180.22780256 290.62382279 -131.93359375 243.01953125 C-124.90200083 246.23130097 -119.69401183 252.05530447 -114.76953125 257.87109375 C-112.77554158 260.20448592 -110.70198034 262.45091211 -108.62109375 264.70703125 C-89.48641194 286.03590929 -75.25520263 311.28467236 -62.93359375 337.01953125 C-62.57362305 337.76460938 -62.21365234 338.5096875 -61.84277344 339.27734375 C-53.44234845 356.78605412 -46.54347458 374.91828426 -39.67654419 393.06976318 C-39.15289366 394.44400975 -38.6198358 395.81468985 -38.08004761 397.18267822 C-35.93359375 402.6942786 -35.93359375 402.6942786 -35.93359375 406.01953125 C-34.94359375 406.01953125 -33.95359375 406.01953125 -32.93359375 406.01953125 C-32.89983643 405.37081055 -32.8660791 404.72208984 -32.83129883 404.05371094 C-32.18241751 394.31301364 -30.45410659 384.84241096 -28.62109375 375.26953125 C-28.44952759 374.37013824 -28.27796143 373.47074524 -28.10119629 372.5440979 C-19.91944639 330.01896522 -9.36440887 287.30509536 8.10546875 247.5546875 C11.32718086 241.07427721 11.32718086 241.07427721 11.37890625 234.1171875 C10.94578125 233.11558594 10.51265625 232.11398437 10.06640625 231.08203125 C9.35871094 229.39013672 9.35871094 229.39013672 8.63671875 227.6640625 C8.11851562 226.46136719 7.6003125 225.25867188 7.06640625 224.01953125 C6.00926943 221.44234987 4.9745314 218.85641668 3.94140625 216.26953125 C3.68657471 215.6362793 3.43174316 215.00302734 3.16918945 214.35058594 C0.76178471 208.33875913 -1.39544556 202.31577621 -2.93359375 196.01953125 C-3.10157471 195.38015625 -3.26955566 194.74078125 -3.44262695 194.08203125 C-9.6137713 170.58774218 -13.04167656 146.40089932 -13.13671875 122.1015625 C-13.14373306 120.89802628 -13.15074738 119.69449005 -13.15797424 118.45448303 C-13.17541494 114.58029406 -13.18182901 110.70625807 -13.18359375 106.83203125 C-13.18425653 105.8409927 -13.18425653 105.8409927 -13.18493271 104.82993317 C-13.19221775 84.05779407 -12.75806322 63.62495992 -9.93359375 43.01953125 C-9.83695435 42.31010376 -9.74031494 41.60067627 -9.64074707 40.86975098 C-4.0507024 0.04091619 -4.0507024 0.04091619 0 0 Z M-6.93359375 28.01953125 C-5.93359375 30.01953125 -5.93359375 30.01953125 -5.93359375 30.01953125 Z M-7.93359375 35.01953125 C-6.93359375 37.01953125 -6.93359375 37.01953125 -6.93359375 37.01953125 Z M-8.93359375 43.01953125 C-7.93359375 45.01953125 -7.93359375 45.01953125 -7.93359375 45.01953125 Z M-9.93359375 52.01953125 C-8.93359375 55.01953125 -8.93359375 55.01953125 -8.93359375 55.01953125 Z M-10.93359375 62.01953125 C-9.93359375 66.01953125 -9.93359375 66.01953125 -9.93359375 66.01953125 Z M-11.93359375 76.01953125 C-11.93359375 77.66953125 -11.93359375 79.31953125 -11.93359375 81.01953125 C-11.60359375 81.01953125 -11.27359375 81.01953125 -10.93359375 81.01953125 C-10.93359375 79.36953125 -10.93359375 77.71953125 -10.93359375 76.01953125 C-11.26359375 76.01953125 -11.59359375 76.01953125 -11.93359375 76.01953125 Z M238.06640625 100.01953125 C238.06640625 100.34953125 238.06640625 100.67953125 238.06640625 101.01953125 C240.70640625 101.01953125 243.34640625 101.01953125 246.06640625 101.01953125 C246.06640625 100.68953125 246.06640625 100.35953125 246.06640625 100.01953125 C243.42640625 100.01953125 240.78640625 100.01953125 238.06640625 100.01953125 Z M308.06640625 100.01953125 C308.06640625 100.34953125 308.06640625 100.67953125 308.06640625 101.01953125 C310.37640625 101.01953125 312.68640625 101.01953125 315.06640625 101.01953125 C315.06640625 100.68953125 315.06640625 100.35953125 315.06640625 100.01953125 C312.75640625 100.01953125 310.44640625 100.01953125 308.06640625 100.01953125 Z M222.06640625 101.01953125 C226.06640625 102.01953125 226.06640625 102.01953125 226.06640625 102.01953125 Z M-11.93359375 130.01953125 C-11.93359375 131.66953125 -11.93359375 133.31953125 -11.93359375 135.01953125 C-11.60359375 135.01953125 -11.27359375 135.01953125 -10.93359375 135.01953125 C-10.93359375 133.36953125 -10.93359375 131.71953125 -10.93359375 130.01953125 C-11.26359375 130.01953125 -11.59359375 130.01953125 -11.93359375 130.01953125 Z M-10.93359375 144.01953125 C-9.93359375 147.01953125 -9.93359375 147.01953125 -9.93359375 147.01953125 Z M-9.93359375 154.01953125 C-8.93359375 156.01953125 -8.93359375 156.01953125 -8.93359375 156.01953125 Z M588.06640625 437.01953125 C589.06640625 441.01953125 589.06640625 441.01953125 589.06640625 441.01953125 Z M-208.93359375 442.01953125 C-207.93359375 444.01953125 -207.93359375 444.01953125 -207.93359375 444.01953125 Z M589.06640625 443.01953125 C590.06640625 447.01953125 590.06640625 447.01953125 590.06640625 447.01953125 Z M-209.93359375 450.01953125 C-208.93359375 452.01953125 -208.93359375 452.01953125 -208.93359375 452.01953125 Z M-210.93359375 458.01953125 C-209.93359375 460.01953125 -209.93359375 460.01953125 -209.93359375 460.01953125 Z M-15.93359375 464.01953125 C-14.94359375 464.51453125 -14.94359375 464.51453125 -13.93359375 465.01953125 C-13.2512207 466.87182617 -13.2512207 466.87182617 -12.609375 469.3125 C-4.94359598 496.29814631 8.89614176 524.46586693 24.06640625 548.01953125 C24.47262207 548.65358887 24.87883789 549.28764648 25.29736328 549.94091797 C29.97991099 557.73523178 29.97991099 557.73523178 37.06640625 563.01953125 C37.39640625 564.00953125 37.72640625 564.99953125 38.06640625 566.01953125 C38.46601563 565.02308594 38.865625 564.02664063 39.27734375 563 C41.05292949 558.86631179 43.28631412 555.12607105 45.69140625 551.33203125 C46.34955322 550.28764893 46.34955322 550.28764893 47.02099609 549.22216797 C51.05499717 542.89918678 55.4290854 536.91699364 60.06640625 531.01953125 C61.1028125 529.69308594 61.1028125 529.69308594 62.16015625 528.33984375 C66.87951248 522.36804298 71.67892933 516.40700817 77.06640625 511.01953125 C72.21257805 507.34238867 66.79396347 506.83244106 60.94140625 505.89453125 C59.95914063 505.72566406 58.976875 505.55679688 57.96484375 505.3828125 C49.14516094 503.90899708 40.33356589 502.85168231 31.37890625 502.95703125 C30.36441406 502.96605469 29.34992188 502.97507812 28.3046875 502.984375 C27.19673828 503.00177734 27.19673828 503.00177734 26.06640625 503.01953125 C28.12863924 497.43937139 31.0077286 493.15769317 34.640625 488.44921875 C36.3043688 485.61401699 36.73519331 484.2432939 36.06640625 481.01953125 C22.49561529 468.42779535 1.92959401 463.72881029 -15.93359375 464.01953125 Z M-211.93359375 468.01953125 C-210.93359375 471.01953125 -210.93359375 471.01953125 -210.93359375 471.01953125 Z M-212.93359375 482.01953125 C-212.93359375 484.32953125 -212.93359375 486.63953125 -212.93359375 489.01953125 C-212.60359375 489.01953125 -212.27359375 489.01953125 -211.93359375 489.01953125 C-211.93359375 486.70953125 -211.93359375 484.39953125 -211.93359375 482.01953125 C-212.26359375 482.01953125 -212.59359375 482.01953125 -212.93359375 482.01953125 Z M-212.93359375 527.01953125 C-212.93359375 528.99953125 -212.93359375 530.97953125 -212.93359375 533.01953125 C-212.60359375 533.01953125 -212.27359375 533.01953125 -211.93359375 533.01953125 C-211.93359375 531.03953125 -211.93359375 529.05953125 -211.93359375 527.01953125 C-212.26359375 527.01953125 -212.59359375 527.01953125 -212.93359375 527.01953125 Z M-211.93359375 543.01953125 C-210.93359375 546.01953125 -210.93359375 546.01953125 -210.93359375 546.01953125 Z M-210.93359375 553.01953125 C-209.93359375 555.01953125 -209.93359375 555.01953125 -209.93359375 555.01953125 Z M-209.93359375 561.01953125 C-208.93359375 563.01953125 -208.93359375 563.01953125 -208.93359375 563.01953125 Z M-206.93359375 579.01953125 C-205.93359375 581.01953125 -205.93359375 581.01953125 -205.93359375 581.01953125 Z M-37.93359375 782.01953125 C-36.93359375 784.01953125 -36.93359375 784.01953125 -36.93359375 784.01953125 Z M-37.93359375 803.01953125 C-36.93359375 805.01953125 -36.93359375 805.01953125 -36.93359375 805.01953125 Z M-17.93359375 893.01953125 C-16.93359375 895.01953125 -16.93359375 895.01953125 -16.93359375 895.01953125 Z M-17.93359375 907.01953125 C-16.93359375 909.01953125 -16.93359375 909.01953125 -16.93359375 909.01953125 Z " fill="#FA7B51" transform="translate(448.93359375,158.98046875)"/>
<path d="M0 0 C3.19874071 6.39748142 0.05602133 15.14827072 -1.4375 21.6875 C-3.29735011 30.1564949 -4.8132357 38.30697096 -5 47 C-1.10406596 48.29864468 1.52866222 47.19875449 5.3125 46.0625 C9.90299277 44.68671433 14.16618853 43.43500905 19 44 C22.02044523 46.32059187 23.00245601 49.06585567 24.3125 52.57421875 C24.95735352 54.26985962 24.95735352 54.26985962 25.61523438 55.99975586 C26.07220703 57.21671143 26.52917969 58.43366699 27 59.6875 C43.61371421 103.60565577 43.61371421 103.60565577 70 142 C70.99 142 71.98 142 73 142 C74.6375814 139.67500103 76.0762783 137.38962091 77.5 134.9375 C87.04810777 119.08075766 98.48362172 104.617356 111 91 C110.67 90.34 110.34 89.68 110 89 C116.65449238 89.62213597 122.78667638 91.16848961 129.1875 93.0625 C130.24267822 93.37413086 131.29785645 93.68576172 132.38500977 94.00683594 C190.84164369 111.62930826 247.16971945 143.89673103 295.3828125 181.1328125 C296.28620361 181.82673096 297.18959473 182.52064941 298.12036133 183.2355957 C299.88943273 184.60038127 301.6500222 185.97624602 303.40112305 187.36401367 C304.60442261 188.29177612 304.60442261 188.29177612 305.83203125 189.23828125 C306.54077393 189.79555908 307.2495166 190.35283691 307.97973633 190.92700195 C309.92163999 192.1909181 309.92163999 192.1909181 312.04272461 191.83496094 C314.1818806 190.92241092 315.69172498 189.88319609 317.484375 188.40234375 C318.16008545 187.85610352 318.8357959 187.30986328 319.53198242 186.74707031 C320.26392822 186.14991211 320.99587402 185.55275391 321.75 184.9375 C331.84677228 176.88690353 342.5181079 169.82018514 353.32080078 162.76123047 C355.59184877 161.26830718 357.84642528 159.75660293 360.08984375 158.22265625 C402.02353314 129.56702277 448.61078025 107.18180568 497 92 C497.69416016 91.77328613 498.38832031 91.54657227 499.10351562 91.31298828 C502.85114887 90.14057296 506.09682486 89.36977226 510 90 C512.02153068 91.79103257 513.44787883 93.32619032 515.0625 95.4375 C515.5258374 96.01516113 515.9891748 96.59282227 516.46655273 97.18798828 C517.9975264 99.11053546 519.49877557 101.05416042 521 103 C522.0827619 104.37414837 523.16610571 105.7478384 524.25 107.12109375 C555.25198636 146.72431078 576.97124437 192.7235978 583 243 C583.09643799 243.75692139 583.19287598 244.51384277 583.29223633 245.29370117 C584.33403038 254.73021498 584.10927323 264.20842046 584.0625 273.6875 C584.05747418 275.4680977 584.05291319 277.24869677 584.04882812 279.02929688 C584.03791 283.35289909 584.02070521 287.67643403 584 292 C584.92002808 292.43892578 584.92002808 292.43892578 585.85864258 292.88671875 C604.35012424 302.50034962 617.32022977 325.90802381 623.68457031 345.06005859 C630.61832597 367.70926198 628.62454349 393.24738036 618.7578125 414.69140625 C614.008599 423.63048143 607.96818304 431.41453753 601.04296875 438.78125 C598.90638112 441.10167404 596.94475023 443.51771206 595 446 C595.45890625 446.67804688 595.9178125 447.35609375 596.390625 448.0546875 C603.45609665 458.77164239 607.17691694 467.99641074 607.1875 480.8125 C607.19974609 481.58142578 607.21199219 482.35035156 607.22460938 483.14257812 C607.22750977 484.28823242 607.22750977 484.28823242 607.23046875 485.45703125 C607.23663208 486.4776062 607.23663208 486.4776062 607.24291992 487.51879883 C606.89478911 491.07463147 605.86653946 494.53384215 605 498 C550.55 498 496.1 498 440 498 C440.66 499.98 441.32 501.96 442 504 C443.07428446 511.76102812 443.19893073 521.13489066 439.4140625 528.1328125 C436.36912082 532.15348134 432.53044393 535.73477803 428 538 C425.58571678 538.12417964 423.16744568 538.17564978 420.75 538.1875 C419.44546875 538.20167969 418.1409375 538.21585938 416.796875 538.23046875 C413 538 413 538 409.828125 536.875 C406.37448443 535.80647032 405.20658243 536.27601259 402 537.8125 C392.80924905 541.88053731 383.88101219 542.07841757 374.31640625 539.0703125 C371.8440149 537.92792594 370.62810014 536.74669581 368.8125 534.75 C366.25168244 532.26825757 365.20623919 532.0056056 361.55078125 531.90625 C358.91945849 532.13665438 356.29032347 532.39347115 353.6640625 532.67578125 C347.31464755 533.23761647 342.42009401 532.41102101 337.3125 528.5 C331.52466249 522.98199174 327.29413115 516.08860654 327 508 C327 505.03 327 502.06 327 499 C316.11 498.67 305.22 498.34 294 498 C294 502.95 294 507.9 294 513 C291.74520293 520.93688569 288.30283863 526.80302115 281.1015625 531.14453125 C275.34887534 533.48623848 268.82401091 533.22813249 262.8125 532.1875 C259.90078842 531.81608482 258.5249294 531.70303994 255.94921875 533.16015625 C254.63649382 534.23085575 253.33966795 535.32131344 252.05859375 536.4296875 C246.22397439 540.88038386 238.13545791 541.91267485 231 541 C228.18554696 540.33469233 225.42527115 539.55888108 222.65234375 538.73828125 C218.00348644 537.44426942 213.67127175 536.44290942 209 538 C194.14133333 539.13866667 194.14133333 539.13866667 188 534 C181.63854236 526.9840714 178.64435058 521.59336684 178.8125 512 C178.81314453 511.30132813 178.81378906 510.60265625 178.81445312 509.8828125 C178.84638783 506.12161433 179.2063512 502.66701371 180 499 C179.17816821 498.99853344 178.35633642 498.99706688 177.50960064 498.99555588 C157.53003366 498.95853469 137.55063694 498.89958249 117.571208 498.81609726 C107.90936688 498.77625582 98.24760781 498.74388933 88.58569336 498.72900391 C80.16621448 498.71601377 71.74691575 498.68911696 63.32753831 498.64538693 C58.86781818 498.62271248 54.40832073 498.60709288 49.94853783 498.60811615 C45.75333623 498.60885925 41.55862801 498.59105049 37.363554 498.55883217 C35.82161965 498.55029303 34.27963021 498.54861031 32.73768234 498.55419731 C30.63619983 498.56079913 28.53630481 498.54301271 26.4349823 498.51898193 C25.25785266 498.51529476 24.08072302 498.51160759 22.86792278 498.50780869 C20 498 20 498 18.13956165 496.11014175 C13.68672418 487.86476228 15.08543775 475.01498949 17.5625 466.25 C19.5136457 460.60711818 22.29462991 455.67132639 25.51171875 450.65625 C27.05974436 447.89336965 28.01008709 446.17743251 28 443 C26.0240088 440.48244036 26.0240088 440.48244036 23.1875 438.125 C8.05010279 424.02080569 -3.15362914 402.55242961 -4.15869141 381.70898438 C-4.32760615 374.13580056 -4.22701398 366.57091611 -4 359 C-5.10142334 358.54560547 -5.10142334 358.54560547 -6.22509766 358.08203125 C-31.44347785 347.63298129 -55.46648815 335.97099189 -77 319 C-77.99257813 318.21882813 -78.98515625 317.43765625 -80.0078125 316.6328125 C-95.29620353 304.32544479 -110.13396379 290.69313663 -122 275 C-122.47083008 274.38914551 -122.94166016 273.77829102 -123.42675781 273.14892578 C-136.6899818 255.86160453 -147.25576284 236.93426343 -156 217 C-156.41765625 216.04996094 -156.8353125 215.09992188 -157.265625 214.12109375 C-159.40190372 209.02750382 -160.89613194 203.89057971 -162.27734375 198.546875 C-163.22744778 195.19840024 -164.57562519 192.17247117 -166 189 C-166.35477254 187.67221036 -166.68621085 186.33806773 -167 185 C-167.42182398 183.42411635 -167.84513124 181.84862935 -168.26953125 180.2734375 C-171.10262454 169.54498969 -173.55624215 158.84576146 -175.25 147.875 C-175.47586792 146.43326416 -175.47586792 146.43326416 -175.70629883 144.96240234 C-178.47165701 126.05102089 -179.37165962 107.21845313 -179.3125 88.125 C-179.31200653 87.02334503 -179.31151306 85.92169006 -179.31100464 84.78665161 C-179.24504782 36.49009563 -179.24504782 36.49009563 -175 28 C-172 29 -172 29 -170.85253906 30.76245117 C-170.49385742 31.51502197 -170.13517578 32.26759277 -169.765625 33.04296875 C-169.35570312 33.86990234 -168.94578125 34.69683594 -168.5234375 35.54882812 C-167.68507261 37.28599217 -166.85160329 39.02552875 -166.0234375 40.76757812 C-162.91153363 47.0155466 -159.36466954 51.81766523 -153 55 C-149.6700329 55.66830771 -149.6700329 55.66830771 -146 55 C-142.34464178 51.98287893 -140.00322689 48.25097912 -138 44 C-137.34 44 -136.68 44 -136 44 C-135.72027344 44.54527344 -135.44054687 45.09054687 -135.15234375 45.65234375 C-129.1588358 56.92630565 -120.98676876 67.74264528 -109 73 C-104.61874882 73.73399199 -101.24778051 73.62389025 -97.25 71.625 C-89.63443585 62.74017515 -87.67486797 51.08647407 -85 40 C-80.84881798 41.48641582 -77.39015514 43.55627149 -73.6875 45.9375 C-65.70070201 50.92686939 -58.66751464 54.42741827 -49 53 C-43.54696725 50.4754478 -41.52250244 47.23185691 -39 42 C-38.10748642 39.07709216 -37.8335729 36.35299125 -37.71875 33.3046875 C-37.68136719 32.42425781 -37.64398438 31.54382813 -37.60546875 30.63671875 C-37.53485833 28.78777177 -37.46454833 26.93881329 -37.39453125 25.08984375 C-37.35714844 24.21199219 -37.31976563 23.33414063 -37.28125 22.4296875 C-37.25095703 21.62772949 -37.22066406 20.82577148 -37.18945312 19.99951172 C-37 18 -37 18 -36 16 C-33.95193678 15.53521259 -31.88449929 15.15515027 -29.8125 14.8125 C-19.12628728 12.66215893 -10.28107462 8.11506124 -2 1 C-1.34 0.67 -0.68 0.34 0 0 Z M-175 30 C-174 32 -174 32 -174 32 Z M-176 38 C-175 40 -175 40 -175 40 Z M-177 48 C-176 51 -176 51 -176 51 Z M-178 62 C-178 64.31 -178 66.62 -178 69 C-177.67 69 -177.34 69 -177 69 C-177 66.69 -177 64.38 -177 62 C-177.33 62 -177.66 62 -178 62 Z M-178 107 C-178 108.98 -178 110.96 -178 113 C-177.67 113 -177.34 113 -177 113 C-177 111.02 -177 109.04 -177 107 C-177.33 107 -177.66 107 -178 107 Z M-177 123 C-176 126 -176 126 -176 126 Z M-176 133 C-175 135 -175 135 -175 135 Z M-175 141 C-174 143 -174 143 -174 143 Z M-172 159 C-171 161 -171 161 -171 161 Z M-3 362 C-2 364 -2 364 -2 364 Z M-3 383 C-2 385 -2 385 -2 385 Z M17 473 C18 475 18 475 18 475 Z M17 487 C18 489 18 489 18 489 Z " fill="#FA7A50" transform="translate(414,579)"/>
<path d="M0 0 C2.09509996 0.405683 2.09509996 0.405683 4.12524414 0.35131836 C5.5487521 0.76601799 6.9642715 1.20828911 8.37524414 1.66381836 C14.8638901 3.66178852 21.47699167 5.00059271 28.12524414 6.35131836 C28.12524414 7.01131836 28.12524414 7.67131836 28.12524414 8.35131836 C29.70499023 8.4634668 29.70499023 8.4634668 31.31665039 8.57788086 C37.50963581 9.36269681 43.22320067 11.60189879 49.06274414 13.72631836 C50.29549072 14.17185059 51.5282373 14.61738281 52.79833984 15.07641602 C72.02593668 22.10119821 90.46103818 30.86828554 108.85180664 39.82006836 C111.89285407 41.29894673 114.93066282 42.71608076 118.05883789 43.99975586 C120.91188916 45.25727909 123.09159833 46.59915438 125.56274414 48.47631836 C130.03627181 51.67856704 134.62882775 54.5768247 139.37524414 57.35131836 C140.04869873 57.76140137 140.72215332 58.17148437 141.41601562 58.59399414 C144.54445712 60.38775254 146.502609 61.35051703 150.16040039 61.35522461 C153.84535087 60.10748775 157.03357906 58.342175 160.31274414 56.28881836 C160.96331787 55.89122314 161.6138916 55.49362793 162.28417969 55.08398438 C167.41028304 51.90792648 172.2649039 48.45498734 177.05102539 44.78491211 C179.12524414 43.35131836 179.12524414 43.35131836 181.12524414 43.35131836 C181.45524414 42.36131836 181.78524414 41.37131836 182.12524414 40.35131836 C182.78524414 40.68131836 183.44524414 41.01131836 184.12524414 41.35131836 C187.20113803 40.3260204 189.91004323 39.0224025 192.81274414 37.57788086 C213.10699898 27.5674578 233.59054135 18.41463666 255.06274414 11.16381836 C256.35921875 10.72598022 256.35921875 10.72598022 257.68188477 10.27929688 C261.46078135 9.04992957 264.07852232 8.35131836 268.12524414 8.35131836 C268.12524414 7.69131836 268.12524414 7.03131836 268.12524414 6.35131836 C269.17583008 6.18116211 270.22641602 6.01100586 271.30883789 5.83569336 C281.53755277 4.14740659 281.53755277 4.14740659 291.03540039 0.12084961 C294.06337952 -0.99412588 296.90665303 -0.66846806 300.12524414 -0.64868164 C303.1215643 -1.02576348 306.08737564 -1.57151846 309.06274414 -2.08618164 C344.27945651 -7.68382355 381.76933664 -4.70649819 411.81665039 16.22631836 C439.05567731 37.3696006 452.22189924 67.43854725 460.53051758 100.03735352 C461.56745794 105.61396807 461.56745794 105.61396807 464.12524414 110.35131836 C464.52950762 112.93624397 464.87917692 115.50478232 465.18774414 118.10131836 C465.27862305 118.81803711 465.36950195 119.53475586 465.46313477 120.27319336 C465.91697788 123.9858348 466.23569774 127.6106232 466.12524414 131.35131836 C464.90836914 131.08319336 463.69149414 130.81506836 462.43774414 130.53881836 C461.20024414 130.27004883 461.20024414 130.27004883 459.93774414 129.99584961 C457.99169177 129.54987927 456.05420639 129.06542938 454.12524414 128.55053711 C433.48679171 123.21387845 415.13202581 128.02625657 396.87915039 138.15209961 C392.83033736 140.51446142 392.83033736 140.51446142 389.12524414 143.35131836 C389.12524414 148.21695703 390.9808123 150.62481853 393.62524414 154.47631836 C398.12524414 161.11145349 398.12524414 161.11145349 398.12524414 163.35131836 C398.78524414 163.68131836 399.44524414 164.01131836 400.12524414 164.35131836 C399.30137207 164.42125 398.4775 164.49118164 397.62866211 164.56323242 C380.61590151 166.03478535 363.84614932 167.7571051 347.12524414 171.35131836 C346.45170898 171.49118164 345.77817383 171.63104492 345.08422852 171.77514648 C300.27791441 181.24900452 256.99398632 203.63775565 218.12524414 227.35131836 C216.76786133 228.17043701 216.76786133 228.17043701 215.38305664 229.00610352 C202.6573299 236.68848619 190.29266885 244.8143389 178.12524414 253.35131836 C177.47442871 253.80635742 176.82361328 254.26139648 176.15307617 254.73022461 C170.86180372 258.43757367 165.60496778 262.17382717 160.51586914 266.15600586 C159.6310083 266.84786987 159.6310083 266.84786987 158.72827148 267.55371094 C157.60872512 268.43489104 156.49410811 269.32238508 155.38549805 270.21728516 C150.54992788 274.04110286 150.54992788 274.04110286 147.12524414 274.35131836 C144.99731445 273.1706543 144.99731445 273.1706543 142.70336914 271.33569336 C141.85081543 270.66683105 140.99826172 269.99796875 140.11987305 269.30883789 C139.21414551 268.58035645 138.30841797 267.851875 137.37524414 267.10131836 C135.47383326 265.61148241 133.57016781 264.12451956 131.66430664 262.64038086 C130.72361328 261.9059375 129.78291992 261.17149414 128.8137207 260.41479492 C123.35643504 256.22618446 117.66290281 252.39210905 111.94458008 248.57202148 C110.21668008 247.41266829 108.50167433 246.23657523 106.78930664 245.05444336 C86.4541549 231.11733124 64.98407443 218.7170375 43.12524414 207.35131836 C41.64894531 206.58029785 41.64894531 206.58029785 40.14282227 205.79370117 C25.45386247 198.16251418 10.52057966 191.42770742 -4.87475586 185.35131836 C-5.6975 185.02292969 -6.52024414 184.69454102 -7.36791992 184.35620117 C-37.74249411 172.31956867 -69.34579486 166.49222247 -101.87475586 164.35131836 C-101.20662851 158.58209171 -97.91854918 154.87563113 -94.58959961 150.28881836 C-92.81459224 147.24825904 -92.47638491 145.79121986 -92.87475586 142.35131836 C-111.39570948 131.30998063 -132.12760846 121.93821144 -154.14819336 127.28881836 C-156.73245512 127.97675062 -159.25120204 128.75543135 -161.80053711 129.57397461 C-164.75630428 130.32136682 -166.08851068 130.44517758 -168.87475586 129.35131836 C-170.20398093 93.54799781 -152.55758167 53.37820876 -128.47314453 27.43432617 C-111.0959502 9.50140715 -85.35828806 -0.71874037 -60.87475586 -3.64868164 C-59.96854492 -3.77114258 -59.06233398 -3.89360352 -58.12866211 -4.01977539 C-38.69774611 -6.10995361 -19.09626251 -3.50726216 0 0 Z " fill="#F7EBE4" transform="translate(576.874755859375,497.648681640625)"/>
<path d="M0 0 C3.19874071 6.39748142 0.05602133 15.14827072 -1.4375 21.6875 C-3.29735011 30.1564949 -4.8132357 38.30697096 -5 47 C-1.10406596 48.29864468 1.52866222 47.19875449 5.3125 46.0625 C9.90299277 44.68671433 14.16618853 43.43500905 19 44 C22.02044523 46.32059187 23.00245601 49.06585567 24.3125 52.57421875 C24.95735352 54.26985962 24.95735352 54.26985962 25.61523438 55.99975586 C26.07220703 57.21671143 26.52917969 58.43366699 27 59.6875 C42.57133029 106.61207418 42.57133029 106.61207418 72 143 C72.43918991 148.22236732 71.00366524 151.64659925 68.5625 156.125 C67.82241893 157.55047716 67.08558054 158.97764136 66.3515625 160.40625 C65.96516602 161.15519531 65.57876953 161.90414062 65.18066406 162.67578125 C38.04202098 216.1000745 30.63895117 279.92089434 48.80151367 337.38500977 C57.02816228 362.22388624 68.58098117 384.57447857 85 405 C85.4640625 405.57975586 85.928125 406.15951172 86.40625 406.75683594 C96.45044617 419.20507622 107.42735694 430.12087007 120.25292969 439.69287109 C121.92325549 440.94258103 123.57497164 442.21398041 125.2265625 443.48828125 C142.32621891 456.43225454 174.85551817 479 197 479 C196.6390625 477.95199219 196.278125 476.90398437 195.90625 475.82421875 C195.43726182 474.44539349 194.9685249 473.06648275 194.5 471.6875 C194.26152344 470.99720703 194.02304687 470.30691406 193.77734375 469.59570312 C192.76791737 466.61068511 192 464.17341086 192 461 C194.25 459.50390625 194.25 459.50390625 197 458 C209.06855656 449.49072477 218.03807479 434.80800177 225 422 C225.33902344 421.401875 225.67804688 420.80375 226.02734375 420.1875 C238.64924156 396.66717638 243.97690587 369.16205587 248.43481445 343.17407227 C248.94008615 340.33647515 249.49582904 337.51707308 250.08203125 334.6953125 C250.99738201 330.21128135 251.58386441 325.73661912 252.0625 321.1875 C252.54048257 316.7513477 253.03163911 312.36190878 254 308 C256.30740871 310.30740871 256.30687368 310.88706286 256.58650208 314.01760864 C256.70599968 315.28077408 256.70599968 315.28077408 256.82791138 316.56945801 C256.90637299 317.49673706 256.98483459 318.42401611 257.06567383 319.37939453 C257.15547012 320.35597015 257.24526642 321.33254578 257.33778381 322.3387146 C257.63587985 325.60271629 257.92128906 328.86770799 258.20703125 332.1328125 C258.41552171 334.4364299 258.62490359 336.73996678 258.83512878 339.04342651 C259.39163312 345.16300033 259.9378999 351.28344333 260.48150635 357.4041748 C261.33533117 367.00234352 262.20272439 376.59929758 263.07210922 386.19606781 C263.28713938 388.57147168 263.50162924 390.94692451 263.71557999 393.32242584 C265.45473209 412.60966337 267.38351992 431.87228572 269.48603821 451.12332153 C269.58808626 452.07121174 269.69013432 453.01910194 269.79527473 453.99571609 C269.98320869 455.73991832 270.17450705 457.4837633 270.37010002 459.22712326 C270.90168125 464.18316965 271.08302796 469.0150752 271 474 C271.73476563 474.2578125 272.46953125 474.515625 273.2265625 474.78125 C281.62785625 478.47308613 287.32617635 486.3872346 292 494 C292.57814453 494.91652344 292.57814453 494.91652344 293.16796875 495.8515625 C295.7196397 502.44038421 294.78039469 511.96402768 292.4375 518.5 C289.64371317 524.46538113 285.17304216 529.48718172 279 532 C273.49240111 533.01177935 268.32200228 533.14123146 262.8125 532.1875 C259.90078842 531.81608482 258.5249294 531.70303994 255.94921875 533.16015625 C254.63649382 534.23085575 253.33966795 535.32131344 252.05859375 536.4296875 C246.22397439 540.88038386 238.13545791 541.91267485 231 541 C228.18554696 540.33469233 225.42527115 539.55888108 222.65234375 538.73828125 C218.00348644 537.44426942 213.67127175 536.44290942 209 538 C194.14133333 539.13866667 194.14133333 539.13866667 188 534 C181.63854236 526.9840714 178.64435058 521.59336684 178.8125 512 C178.81314453 511.30132813 178.81378906 510.60265625 178.81445312 509.8828125 C178.84638783 506.12161433 179.2063512 502.66701371 180 499 C179.17816821 498.99853344 178.35633642 498.99706688 177.50960064 498.99555588 C157.53003366 498.95853469 137.55063694 498.89958249 117.571208 498.81609726 C107.90936688 498.77625582 98.24760781 498.74388933 88.58569336 498.72900391 C80.16621448 498.71601377 71.74691575 498.68911696 63.32753831 498.64538693 C58.86781818 498.62271248 54.40832073 498.60709288 49.94853783 498.60811615 C45.75333623 498.60885925 41.55862801 498.59105049 37.363554 498.55883217 C35.82161965 498.55029303 34.27963021 498.54861031 32.73768234 498.55419731 C30.63619983 498.56079913 28.53630481 498.54301271 26.4349823 498.51898193 C25.25785266 498.51529476 24.08072302 498.51160759 22.86792278 498.50780869 C20 498 20 498 18.13956165 496.11014175 C13.68672418 487.86476228 15.08543775 475.01498949 17.5625 466.25 C19.5136457 460.60711818 22.29462991 455.67132639 25.51171875 450.65625 C27.05974436 447.89336965 28.01008709 446.17743251 28 443 C26.0240088 440.48244036 26.0240088 440.48244036 23.1875 438.125 C8.05010279 424.02080569 -3.15362914 402.55242961 -4.15869141 381.70898438 C-4.32760615 374.13580056 -4.22701398 366.57091611 -4 359 C-5.10142334 358.54560547 -5.10142334 358.54560547 -6.22509766 358.08203125 C-31.44347785 347.63298129 -55.46648815 335.97099189 -77 319 C-77.99257813 318.21882813 -78.98515625 317.43765625 -80.0078125 316.6328125 C-95.29620353 304.32544479 -110.13396379 290.69313663 -122 275 C-122.47083008 274.38914551 -122.94166016 273.77829102 -123.42675781 273.14892578 C-136.6899818 255.86160453 -147.25576284 236.93426343 -156 217 C-156.41765625 216.04996094 -156.8353125 215.09992188 -157.265625 214.12109375 C-159.40190372 209.02750382 -160.89613194 203.89057971 -162.27734375 198.546875 C-163.22744778 195.19840024 -164.57562519 192.17247117 -166 189 C-166.35477254 187.67221036 -166.68621085 186.33806773 -167 185 C-167.42182398 183.42411635 -167.84513124 181.84862935 -168.26953125 180.2734375 C-171.10262454 169.54498969 -173.55624215 158.84576146 -175.25 147.875 C-175.47586792 146.43326416 -175.47586792 146.43326416 -175.70629883 144.96240234 C-178.47165701 126.05102089 -179.37165962 107.21845313 -179.3125 88.125 C-179.31200653 87.02334503 -179.31151306 85.92169006 -179.31100464 84.78665161 C-179.24504782 36.49009563 -179.24504782 36.49009563 -175 28 C-172 29 -172 29 -170.85253906 30.76245117 C-170.49385742 31.51502197 -170.13517578 32.26759277 -169.765625 33.04296875 C-169.35570312 33.86990234 -168.94578125 34.69683594 -168.5234375 35.54882812 C-167.68507261 37.28599217 -166.85160329 39.02552875 -166.0234375 40.76757812 C-162.91153363 47.0155466 -159.36466954 51.81766523 -153 55 C-149.6700329 55.66830771 -149.6700329 55.66830771 -146 55 C-142.34464178 51.98287893 -140.00322689 48.25097912 -138 44 C-137.34 44 -136.68 44 -136 44 C-135.72027344 44.54527344 -135.44054687 45.09054687 -135.15234375 45.65234375 C-129.1588358 56.92630565 -120.98676876 67.74264528 -109 73 C-104.61874882 73.73399199 -101.24778051 73.62389025 -97.25 71.625 C-89.63443585 62.74017515 -87.67486797 51.08647407 -85 40 C-80.84881798 41.48641582 -77.39015514 43.55627149 -73.6875 45.9375 C-65.70070201 50.92686939 -58.66751464 54.42741827 -49 53 C-43.54696725 50.4754478 -41.52250244 47.23185691 -39 42 C-38.10748642 39.07709216 -37.8335729 36.35299125 -37.71875 33.3046875 C-37.68136719 32.42425781 -37.64398438 31.54382813 -37.60546875 30.63671875 C-37.53485833 28.78777177 -37.46454833 26.93881329 -37.39453125 25.08984375 C-37.35714844 24.21199219 -37.31976563 23.33414063 -37.28125 22.4296875 C-37.25095703 21.62772949 -37.22066406 20.82577148 -37.18945312 19.99951172 C-37 18 -37 18 -36 16 C-33.95193678 15.53521259 -31.88449929 15.15515027 -29.8125 14.8125 C-19.12628728 12.66215893 -10.28107462 8.11506124 -2 1 C-1.34 0.67 -0.68 0.34 0 0 Z M-175 30 C-174 32 -174 32 -174 32 Z M-176 38 C-175 40 -175 40 -175 40 Z M-177 48 C-176 51 -176 51 -176 51 Z M-178 62 C-178 64.31 -178 66.62 -178 69 C-177.67 69 -177.34 69 -177 69 C-177 66.69 -177 64.38 -177 62 C-177.33 62 -177.66 62 -178 62 Z M-178 107 C-178 108.98 -178 110.96 -178 113 C-177.67 113 -177.34 113 -177 113 C-177 111.02 -177 109.04 -177 107 C-177.33 107 -177.66 107 -178 107 Z M-177 123 C-176 126 -176 126 -176 126 Z M-176 133 C-175 135 -175 135 -175 135 Z M-175 141 C-174 143 -174 143 -174 143 Z M-172 159 C-171 161 -171 161 -171 161 Z M-3 362 C-2 364 -2 364 -2 364 Z M-3 383 C-2 385 -2 385 -2 385 Z M17 473 C18 475 18 475 18 475 Z M17 487 C18 489 18 489 18 489 Z " fill="#EE5B38" transform="translate(414,579)"/>
<path d="M0 0 C17.55439267 7.71268511 30.61972859 29.59253871 37.4921875 46.83203125 C46.22867094 70.24470795 45.44745916 96.1570325 36.3125 119.3125 C31.53846039 129.68823935 24.84257963 138.48439617 17.04296875 146.78125 C14.90638112 149.10167404 12.94475023 151.51771206 11 154 C11.45890625 154.67804688 11.9178125 155.35609375 12.390625 156.0546875 C19.45609665 166.77164239 23.17691694 175.99641074 23.1875 188.8125 C23.19974609 189.58142578 23.21199219 190.35035156 23.22460938 191.14257812 C23.22654297 191.90634766 23.22847656 192.67011719 23.23046875 193.45703125 C23.23457764 194.13741455 23.23868652 194.81779785 23.24291992 195.51879883 C22.89478911 199.07463147 21.86653946 202.53384215 21 206 C-33.45 206 -87.9 206 -144 206 C-143.34 207.98 -142.68 209.96 -142 212 C-140.92571554 219.76102812 -140.80106927 229.13489066 -144.5859375 236.1328125 C-147.63087918 240.15348134 -151.46955607 243.73477803 -156 246 C-158.41428322 246.12417964 -160.83255432 246.17564978 -163.25 246.1875 C-164.55453125 246.20167969 -165.8590625 246.21585938 -167.203125 246.23046875 C-171 246 -171 246 -174.171875 244.875 C-177.62551557 243.80647032 -178.79341757 244.27601259 -182 245.8125 C-191.19075095 249.88053731 -200.11898781 250.07841757 -209.68359375 247.0703125 C-212.1559851 245.92792594 -213.37189986 244.74669581 -215.1875 242.75 C-217.74831756 240.26825757 -218.79376081 240.0056056 -222.44921875 239.90625 C-225.08054151 240.13665438 -227.70967653 240.39347115 -230.3359375 240.67578125 C-236.68535245 241.23761647 -241.57990599 240.41102101 -246.6875 236.5 C-252.47421391 230.98306296 -256.71121471 224.08598825 -257 216 C-257.05403578 212.66451871 -257.06039905 209.33537001 -257 206 C-256.34 206 -255.68 206 -255 206 C-254.855625 205.05125 -254.71125 204.1025 -254.5625 203.125 C-252.88135138 197.28833612 -248.39060005 192.99538429 -244 189 C-243.28804474 188.6496167 -242.57608948 188.2992334 -241.84255981 187.93823242 C-237.92273505 185.93371519 -235.49294644 184.35271191 -233.95075989 180.1207428 C-233.31045664 176.36904253 -232.93877991 172.63818136 -232.65234375 168.84765625 C-232.51123991 167.38910998 -232.36645645 165.93091577 -232.2183075 164.47306824 C-231.82540294 160.50330932 -231.48416366 156.53057623 -231.15155792 152.55537415 C-230.79163308 148.36376413 -230.38313268 144.17689059 -229.97998047 139.98925781 C-229.20627753 131.8724997 -228.47643101 123.75239475 -227.76264191 115.63017082 C-226.71380051 103.71032658 -225.61353265 91.79520498 -224.51599693 79.87976265 C-224.24162846 76.90090195 -223.96751904 73.92201761 -223.69360352 70.94311523 C-223.60417197 69.9708112 -223.51474043 68.99850718 -223.42259884 67.99673939 C-222.89084283 62.19885256 -222.37056786 56.40007228 -221.86056614 50.60023212 C-221.54077067 46.9686531 -221.2164319 43.3374867 -220.8916111 39.70635414 C-220.74197213 38.01909675 -220.59457742 36.33163854 -220.4496212 34.6439724 C-220.25030935 32.32492552 -220.04321207 30.0066911 -219.83447266 27.68847656 C-219.72092438 26.38992737 -219.6073761 25.09137817 -219.49038696 23.753479 C-218.96040344 19.69692331 -218.06290302 15.94669352 -217 12 C-216.67 12 -216.34 12 -216 12 C-215.90501221 12.66604248 -215.81002441 13.33208496 -215.7121582 14.01831055 C-213.26747543 31.06435086 -210.56368375 48.04564715 -207.52880859 64.99707031 C-207.10581705 67.39909985 -206.70788954 69.80127503 -206.33203125 72.2109375 C-201.47987641 100.67257057 -188.91285612 131.86706708 -170 154 C-168.9171875 155.28197266 -168.9171875 155.28197266 -167.8125 156.58984375 C-163.55942007 161.48232252 -159.46854407 165.50943996 -154 169 C-154.43233453 170.66801405 -154.87119012 172.33433808 -155.3125 174 C-155.55613281 174.928125 -155.79976562 175.85625 -156.05078125 176.8125 C-157.18628891 180.62556275 -158.57158443 184.28691974 -160 188 C-148.20683646 184.30202968 -137.01081113 179.81280144 -125.875 174.4375 C-124.75053467 173.89585205 -123.62606934 173.3542041 -122.4675293 172.79614258 C-110.99504959 167.50925974 -110.99504959 167.50925974 -101 160 C-99.88625 159.484375 -98.7725 158.96875 -97.625 158.4375 C-80.52886537 150.09038182 -62.98870107 133.83826385 -51 119 C-50.18144531 118.00742187 -49.36289062 117.01484375 -48.51953125 115.9921875 C-21.54538459 82.83193118 -7.49905724 44.99676098 -1.38549805 2.95166016 C-1 1 -1 1 0 0 Z " fill="#EE5B38" transform="translate(998,871)"/>
<path d="M0 0 C7.03159292 3.21176972 12.23958192 9.03577322 17.1640625 14.8515625 C19.15805217 17.18495467 21.23161341 19.43138086 23.3125 21.6875 C42.44718181 43.01637804 56.67839112 68.26514111 69 94 C69.3599707 94.74507813 69.71994141 95.49015625 70.09082031 96.2578125 C76.08553835 108.75239248 81.28730316 121.53014163 86.3125 134.4375 C86.60900452 135.19695923 86.90550903 135.95641846 87.21099854 136.7388916 C90.23361154 144.50113467 93.18194901 152.2917741 95.91796875 160.16015625 C96.52354614 161.88890991 96.52354614 161.88890991 97.14135742 163.65258789 C98.2579234 168.00551259 99.00293743 172.16504374 96.78515625 176.22265625 C86.72842914 186.96351446 75.68624774 192.29951513 61 193 C60.98598145 193.92111572 60.98598145 193.92111572 60.97167969 194.86083984 C60.91730259 197.69964433 60.83379448 200.53691732 60.75 203.375 C60.73582031 204.34050781 60.72164062 205.30601562 60.70703125 206.30078125 C60.46552159 213.49776899 59.48491374 221.11971062 54.48291016 226.68920898 C49.91557513 230.59009867 46.74698994 231.42420041 40.8984375 231.33203125 C30.10638075 230.09574443 20.76398541 222.95069424 12 217 C11.9071875 218.7634375 11.9071875 218.7634375 11.8125 220.5625 C10.66896636 230.60018416 7.31026295 241.74965724 0 249 C-4.11109776 251.74073184 -7.17348952 251.82804121 -12 251 C-24.02864367 246.04924368 -32.86909341 235.12584139 -39 224 C-39 223.01 -39 222.02 -39 221 C-39.66 221 -40.32 221 -41 221 C-41.20625 221.86625 -41.4125 222.7325 -41.625 223.625 C-43.31605265 227.77576559 -45.27277905 230.48091274 -49 233 C-52.62363416 233.80525204 -54.70071807 233.6736083 -58.01171875 231.95703125 C-63.49958756 228.22528046 -66.72553553 223.67627214 -70 218 C-70.75117824 216.87882327 -71.50248969 215.75773578 -72.25390625 214.63671875 C-79.76533665 202.6959938 -77.88503486 193.26271278 -75 180 C-74.71958845 178.62194165 -74.44189849 177.24332753 -74.16650391 175.86425781 C-62.23990344 116.15161552 -44.72326573 44.08436193 0 0 Z M-77 199 C-76 201 -76 201 -76 201 Z " fill="#F8ECE5" transform="translate(317,402)"/>
<path d="M0 0 C8.95837791 17.91675581 -2.82723006 61.32241797 -4.6875 80.6875 C-4.91773641 83.08955779 -5.14796097 85.49161671 -5.37817383 87.89367676 C-6.29218857 97.42085988 -7.20743304 106.94791615 -8.13253784 116.47402954 C-9.24511706 127.95388166 -10.32010762 139.4343346 -11.28218079 150.92781067 C-11.72484446 156.21457762 -12.20622613 161.49753749 -12.69302368 166.78042603 C-12.89552983 169.06923471 -13.08222499 171.35950473 -13.25204468 173.65097046 C-14.48563694 190.18191292 -14.48563694 190.18191292 -18.25805664 194.7109375 C-20.77315455 196.48167015 -23.20041403 197.74675985 -26 199 C-28.5727993 201.27072494 -28.5727993 201.27072494 -30.4375 203.5 C-31.05496094 204.1909375 -31.67242188 204.881875 -32.30859375 205.59375 C-34.38855913 208.55277696 -35.61329289 211.66860067 -37 215 C-41.62644904 215.04950925 -46.25274318 215.08577116 -50.87939453 215.10986328 C-52.45266405 215.11990887 -54.02591496 215.13354781 -55.59912109 215.15087891 C-57.86300252 215.17519096 -60.12663666 215.18649747 -62.390625 215.1953125 C-63.09181458 215.20563507 -63.79300415 215.21595764 -64.51544189 215.22659302 C-68.16932175 215.22742884 -70.96219717 215.13608154 -74 213 C-75.44879547 211.01002023 -76.81475778 208.95881696 -78.125 206.875 C-82.49069107 200.1983871 -87.75281765 194.62359118 -95 191 C-95.48365784 188.66740417 -95.48365784 188.66740417 -95.81860352 185.49682617 C-95.94989151 184.29438263 -96.0811795 183.09193909 -96.21644592 181.85305786 C-96.35423614 180.49972568 -96.49171113 179.14636138 -96.62890625 177.79296875 C-96.78027771 176.36369125 -96.93230887 174.9344835 -97.08494568 173.50534058 C-97.50271264 169.56405241 -97.90711345 165.62149364 -98.30828857 161.67848587 C-98.56212022 159.19122141 -98.81924822 156.70431908 -99.07739258 154.21749878 C-102.17880776 124.30361678 -104.97944191 94.36124133 -107.6959343 64.4102211 C-107.99929454 61.07026702 -108.3044503 57.73048069 -108.6098938 54.39071655 C-109.09470972 49.08111121 -109.57271932 43.77093331 -110.04545784 38.46023941 C-110.22067695 36.49994346 -110.39772309 34.53980978 -110.57678032 32.57986069 C-111.50852532 22.35575466 -112.28702966 12.27629672 -112 2 C-78.91747411 -16.71754605 -33.90049275 -17.55561232 0 0 Z " fill="#F8ECE5" transform="translate(780,862)"/>
<path d="M0 0 C0.33 0 0.66 0 1 0 C1.09498779 0.66604248 1.18997559 1.33208496 1.2878418 2.01831055 C3.73252457 19.06435086 6.43631625 36.04564715 9.47119141 52.99707031 C9.89418295 55.39909985 10.29211046 57.80127503 10.66796875 60.2109375 C15.52012359 88.67257057 28.08714388 119.86706708 47 142 C48.0828125 143.28197266 48.0828125 143.28197266 49.1875 144.58984375 C53.44057993 149.48232252 57.53145593 153.50943996 63 157 C62.80664062 157.70125 62.61328125 158.4025 62.4140625 159.125 C61.87311619 161.0959727 61.34374322 163.07014775 60.82421875 165.046875 C60 168 60 168 59.14453125 170.265625 C58.26699268 172.49400933 58.26699268 172.49400933 58 176 C60.08891851 179.83230163 63.19382369 182.38577043 66.625 185 C71.51843348 189.12078609 74.4916773 195.58970077 75.22241211 201.9296875 C76.17312023 219.16919483 76.17312023 219.16919483 71 226 C63.42412759 233.87531401 63.42412759 233.87531401 57.734375 234.16796875 C56.41953125 234.17441406 55.1046875 234.18085937 53.75 234.1875 C52.44546875 234.20167969 51.1409375 234.21585938 49.796875 234.23046875 C46 234 46 234 42.828125 232.875 C39.37448443 231.80647032 38.20658243 232.27601259 35 233.8125 C25.80924905 237.88053731 16.88101219 238.07841757 7.31640625 235.0703125 C4.8440149 233.92792594 3.62810014 232.74669581 1.8125 230.75 C-0.74831756 228.26825757 -1.79376081 228.0056056 -5.44921875 227.90625 C-8.08054151 228.13665438 -10.70967653 228.39347115 -13.3359375 228.67578125 C-19.68535245 229.23761647 -24.57990599 228.41102101 -29.6875 224.5 C-35.47421391 218.98306296 -39.71121471 212.08598825 -40 204 C-40.05403578 200.66451871 -40.06039905 197.33537001 -40 194 C-39.34 194 -38.68 194 -38 194 C-37.855625 193.05125 -37.71125 192.1025 -37.5625 191.125 C-35.88135138 185.28833612 -31.39060005 180.99538429 -27 177 C-26.28804474 176.6496167 -25.57608948 176.2992334 -24.84255981 175.93823242 C-20.92273505 173.93371519 -18.49294644 172.35271191 -16.95075989 168.1207428 C-16.31045664 164.36904253 -15.93877991 160.63818136 -15.65234375 156.84765625 C-15.51123991 155.38910998 -15.36645645 153.93091577 -15.2183075 152.47306824 C-14.82540294 148.50330932 -14.48416366 144.53057623 -14.15155792 140.55537415 C-13.79163308 136.36376413 -13.38313268 132.17689059 -12.97998047 127.98925781 C-12.20627753 119.8724997 -11.47643101 111.75239475 -10.76264191 103.63017082 C-9.71380051 91.71032658 -8.61353265 79.79520498 -7.51599693 67.87976265 C-7.24162846 64.90090195 -6.96751904 61.92201761 -6.69360352 58.94311523 C-6.60417197 57.9708112 -6.51474043 56.99850718 -6.42259884 55.99673939 C-5.89084283 50.19885256 -5.37056786 44.40007228 -4.86056614 38.60023212 C-4.54077067 34.9686531 -4.2164319 31.3374867 -3.8916111 27.70635414 C-3.74197213 26.01909675 -3.59457742 24.33163854 -3.4496212 22.6439724 C-3.25030935 20.32492552 -3.04321207 18.0066911 -2.83447266 15.68847656 C-2.72092438 14.38992737 -2.6073761 13.09137817 -2.49038696 11.753479 C-1.96040344 7.69692331 -1.06290302 3.94669352 0 0 Z " fill="#FB6C3B" transform="translate(781,883)"/>
<path d="M0 0 C2.30740871 2.30740871 2.30687368 2.88706286 2.58650208 6.01760864 C2.66616714 6.85971893 2.74583221 7.70182922 2.82791138 8.56945801 C2.90637299 9.49673706 2.98483459 10.42401611 3.06567383 11.37939453 C3.15547012 12.35597015 3.24526642 13.33254578 3.33778381 14.3387146 C3.63587985 17.60271629 3.92128906 20.86770799 4.20703125 24.1328125 C4.41552171 26.4364299 4.62490359 28.73996678 4.83512878 31.04342651 C5.39163312 37.16300033 5.9378999 43.28344333 6.48150635 49.4041748 C7.33533117 59.00234352 8.20272439 68.59929758 9.07210922 78.19606781 C9.28713938 80.57147168 9.50162924 82.94692451 9.71557999 85.32242584 C11.45473209 104.60966337 13.38351992 123.87228572 15.48603821 143.12332153 C15.58808626 144.07121174 15.69013432 145.01910194 15.79527473 145.99571609 C15.98320869 147.73991832 16.17450705 149.4837633 16.37010002 151.22712326 C16.90168125 156.18316965 17.08302796 161.0150752 17 166 C17.73476563 166.2578125 18.46953125 166.515625 19.2265625 166.78125 C27.62785625 170.47308613 33.32617635 178.3872346 38 186 C38.38542969 186.61101562 38.77085937 187.22203125 39.16796875 187.8515625 C41.7196397 194.44038421 40.78039469 203.96402768 38.4375 210.5 C35.64371317 216.46538113 31.17304216 221.48718172 25 224 C19.49240111 225.01177935 14.32200228 225.14123146 8.8125 224.1875 C5.90078842 223.81608482 4.5249294 223.70303994 1.94921875 225.16015625 C0.63649382 226.23085575 -0.66033205 227.32131344 -1.94140625 228.4296875 C-7.77602561 232.88038386 -15.86454209 233.91267485 -23 233 C-25.81445304 232.33469233 -28.57472885 231.55888108 -31.34765625 230.73828125 C-35.99651356 229.44426942 -40.32872825 228.44290942 -45 230 C-59.85866667 231.13866667 -59.85866667 231.13866667 -66 226 C-72.3379287 219.01002102 -75.35615386 213.62251086 -75.1875 204.0625 C-75.18685547 203.37220703 -75.18621094 202.68191406 -75.18554688 201.97070312 C-75.09385643 191.22254542 -75.09385643 191.22254542 -71.875 187.625 C-70.92625 186.75875 -69.9775 185.8925 -69 185 C-67.18670845 182.97992959 -65.41827798 180.92532779 -63.6484375 178.8671875 C-62 177 -62 177 -60.2890625 175.3828125 C-58.77270787 174.07125479 -58.77270787 174.07125479 -59 172 C-58.34 171.67 -57.68 171.34 -57 171 C-57.3609375 169.95199219 -57.721875 168.90398437 -58.09375 167.82421875 C-58.56273818 166.44539349 -59.0314751 165.06648275 -59.5 163.6875 C-59.73847656 162.99720703 -59.97695313 162.30691406 -60.22265625 161.59570312 C-61.23208263 158.61068511 -62 156.17341086 -62 153 C-59.75 151.50390625 -59.75 151.50390625 -57 150 C-44.93144344 141.49072477 -35.96192521 126.80800177 -29 114 C-28.66097656 113.401875 -28.32195313 112.80375 -27.97265625 112.1875 C-15.35075844 88.66717638 -10.02309413 61.16205587 -5.56518555 35.17407227 C-5.05991385 32.33647515 -4.50417096 29.51707308 -3.91796875 26.6953125 C-3.00261799 22.21128135 -2.41613559 17.73661912 -1.9375 13.1875 C-1.45951743 8.7513477 -0.96836089 4.36190878 0 0 Z " fill="#FB6C3B" transform="translate(668,887)"/>
<path d="M0 0 C5.08490624 0.57280564 9.00294372 2.95822135 13.375 5.4375 C14.17156006 5.88633545 14.96812012 6.3351709 15.78881836 6.79760742 C39.83473698 20.5186165 61.1612302 38.09391135 80.8125 57.5 C81.69139893 58.36117432 82.57029785 59.22234863 83.47583008 60.10961914 C84.29462646 60.92938232 85.11342285 61.74914551 85.95703125 62.59375 C87.05494995 63.68719727 87.05494995 63.68719727 88.17504883 64.80273438 C90.09566931 67.11518713 91.04772847 69.16527338 92 72 C91.48840332 72.24008789 90.97680664 72.48017578 90.44970703 72.72753906 C68.4190451 83.16130767 49.72512327 96.33535419 32 113 C31.04480469 113.87398437 31.04480469 113.87398437 30.0703125 114.765625 C23.11824798 121.35179139 16.92016958 129.35285976 11.79296875 137.43359375 C11.20128906 138.28050781 10.60960937 139.12742187 10 140 C9.34 140 8.68 140 8 140 C5.30393383 134.29437159 3.80829148 128.66205288 2.5 122.5 C2.28569336 121.5004126 2.07138672 120.5008252 1.85058594 119.47094727 C-2.72069443 97.41951828 -4.2102008 75.28578643 -4.1875 52.8125 C-4.18756042 51.89523132 -4.18762085 50.97796265 -4.18768311 50.03289795 C-4.17676986 38.36967915 -3.97530894 26.75999291 -3.125 15.125 C-3.04660889 14.03421143 -2.96821777 12.94342285 -2.88745117 11.81958008 C-2.21685171 3.92090854 -2.21685171 3.92090854 0 0 Z " fill="#F8ECE5" transform="translate(479,212)"/>
<path d="M0 0 C2.26144565 1.77134555 2.94779157 2.74112204 3.52416992 5.59912109 C3.59224854 6.64664551 3.66032715 7.69416992 3.73046875 8.7734375 C3.81135742 9.97202393 3.89224609 11.17061035 3.97558594 12.40551758 C4.04551758 13.71544678 4.11544922 15.02537598 4.1875 16.375 C4.22669556 17.05049896 4.26589111 17.72599792 4.30627441 18.42196655 C6.64174442 58.98212379 5.21438939 99.50073891 -5 139 C-5.66 139 -6.32 139 -7 139 C-7 138.34 -7 137.68 -7 137 C-7.56847656 136.78988281 -8.13695312 136.57976562 -8.72265625 136.36328125 C-11.76118214 134.54433522 -13.40552126 132.00825195 -15.4375 129.1875 C-35.31778339 102.8981869 -60.76705215 85.33591244 -90 71 C-86.35381206 63.33735545 -79.68893208 57.35754014 -73.26171875 51.953125 C-70.99963041 49.99968084 -68.83692069 47.95919334 -66.67285156 45.8984375 C-47.13385637 27.414003 -24.02587704 12.01293852 0 0 Z " fill="#F8ECE5" transform="translate(969,212)"/>
<path d="M0 0 C7.69232604 6.90336952 14.91770819 18.7497958 15.8371582 29.26196289 C16.24122509 43.34956968 15.35297952 54.26059536 5.66015625 65.23828125 C4.79777344 66.25728516 4.79777344 66.25728516 3.91796875 67.296875 C-4.48696518 76.52137717 -15.03604156 80.48881107 -27.33984375 81.23828125 C-36.13052139 81.45668318 -44.19133275 78.18260989 -52.33984375 75.23828125 C-52.33984375 74.57828125 -52.33984375 73.91828125 -52.33984375 73.23828125 C-53.06300781 72.99464844 -53.78617188 72.75101562 -54.53125 72.5 C-62.72018316 68.82124421 -67.74962918 61.55196031 -70.90234375 53.42578125 C-76.21174759 39.34789787 -74.661408 27.75809372 -68.65234375 14.05078125 C-61.91843828 1.88878467 -51.38367414 -4.33768566 -38.58984375 -8.69921875 C-25.2499777 -12.03418526 -10.86121873 -8.17764548 0 0 Z " fill="#183448" transform="translate(632.33984375,422.76171875)"/>
<path d="M0 0 C9.67116144 7.85279246 16.93942075 20.36617347 18.33154297 32.80688477 C19.48030464 45.40149002 15.72012976 56.63857624 8.33154297 66.80688477 C0.569521 75.65648371 -10.82406755 82.00009302 -22.66845703 82.80688477 C-31.40204829 82.87747961 -38.8849751 81.82706603 -46.66845703 77.80688477 C-47.93302734 77.15526367 -47.93302734 77.15526367 -49.22314453 76.49047852 C-60.27408207 70.3268097 -66.74865355 62.47376623 -70.77783203 50.51391602 C-71.75963468 46.42737778 -72.05296699 42.74079022 -72.04345703 38.55688477 C-72.0418457 37.81253174 -72.04023437 37.06817871 -72.03857422 36.30126953 C-71.89643288 29.86240623 -70.44373535 24.62914698 -67.66845703 18.80688477 C-67.40291016 18.11594727 -67.13736328 17.42500977 -66.86376953 16.71313477 C-62.8064561 6.97558254 -54.12401293 0.21530517 -44.73486328 -4.00561523 C-29.77302772 -9.79975283 -13.53062465 -9.67576275 0 0 Z " fill="#183448" transform="translate(873.66845703125,421.193115234375)"/>
<path d="M0 0 C1.42119141 0.45246094 1.42119141 0.45246094 2.87109375 0.9140625 C8.00111651 2.74568166 11.46515626 4.71534092 15 9 C15.598125 9.5775 16.19625 10.155 16.8125 10.75 C19.02738396 14.94662224 18.5037454 19.4565796 17.6015625 24.01171875 C14.00902387 35.51250799 3.40696805 44.28682202 -6.125 50.9375 C-6.87692627 51.46239014 -7.62885254 51.98728027 -8.40356445 52.52807617 C-23.71884148 63.09740484 -23.71884148 63.09740484 -28.8359375 62.87890625 C-32.69675433 61.80645713 -35.99166959 60.1178103 -39.4375 58.125 C-40.47487305 57.53041992 -40.47487305 57.53041992 -41.53320312 56.92382812 C-56.15038393 48.36062956 -70.41578934 38.75263197 -76 22 C-76.50475778 15.8419551 -76.03306159 12.95490423 -72 8 C-57.85782875 -8.33737395 -18.38568994 -6.05098656 0 0 Z " fill="#183448" transform="translate(754,497)"/>
<path d="M0 0 C4.35596724 3.59244939 6.06540762 7.98009823 8.1875 13.0625 C8.76516113 14.43341797 8.76516113 14.43341797 9.35449219 15.83203125 C15.79462134 31.45966014 21.14184034 47.57162802 25.125 64 C25.33737305 64.87205078 25.54974609 65.74410156 25.76855469 66.64257812 C27.1295044 72.61148679 27.1295044 72.61148679 26 76 C24.53564453 77.11572266 24.53564453 77.11572266 22.6328125 78.1640625 C21.9217334 78.55948242 21.2106543 78.95490234 20.47802734 79.36230469 C19.31327881 79.98733887 19.31327881 79.98733887 18.125 80.625 C17.32143066 81.06231445 16.51786133 81.49962891 15.68994141 81.95019531 C4.12934445 88.16875183 -7.66528618 93.88494103 -19.9375 98.5625 C-20.59379395 98.81418945 -21.25008789 99.06587891 -21.92626953 99.32519531 C-25.20665026 100.52797274 -27.44336638 101 -31 101 C-29.02562887 93.48020141 -26.79351971 86.08718692 -24.33984375 78.7109375 C-23.6255208 76.5450462 -22.91133323 74.37911026 -22.19726562 72.21313477 C-21.82770752 71.09528595 -21.45814941 69.97743713 -21.07739258 68.82571411 C-15.55902467 52.12035925 -10.08385722 35.40590197 -5 18.5625 C-4.79494843 17.88572205 -4.58989685 17.20894409 -4.37863159 16.51165771 C-1.88252838 8.33315206 -1.88252838 8.33315206 0 0 Z " fill="#F8ECE5" transform="translate(869,958)"/>
<path d="M0 0 C2.48913767 2.19874861 3.53338089 3.91773227 4.46362305 7.09277344 C4.71263367 7.92350876 4.96164429 8.75424408 5.21820068 9.6101532 C5.48006165 10.51739639 5.74192261 11.42463959 6.01171875 12.359375 C6.60337986 14.34189449 7.19509798 16.32439696 7.78686523 18.30688477 C8.25127518 19.88241623 8.25127518 19.88241623 8.72506714 21.48977661 C14.38357835 40.65787793 20.44183488 59.6620734 26.9375 78.5625 C27.29387543 79.60007446 27.65025085 80.63764893 28.01742554 81.70666504 C30.00102351 87.47481282 31.99540242 93.23911822 34 99 C29.44257408 100.51914197 26.29623672 98.56607264 21.9375 96.875 C21.02589111 96.5246167 20.11428223 96.1742334 19.17504883 95.81323242 C4.26027334 89.90214032 -10.53797472 82.75275226 -24 74 C-23.41244424 66.82289478 -21.9133225 60.22868918 -19.9375 53.3125 C-19.62804443 52.22251709 -19.31858887 51.13253418 -18.99975586 50.00952148 C-14.00438789 32.77244157 -7.55093914 16.26665081 0 0 Z " fill="#F8ECE5" transform="translate(578,959)"/>
<path d="M0 0 C3.38793399 3.38793399 4.29195991 6.27493868 4.625 10.9375 C4.39582154 15.52801404 3.3070022 18.5054978 0.0390625 21.7734375 C-4.10827316 24.26819497 -8.38681021 23.96275265 -13 23 C-16.5815242 21.36855837 -19.01027423 19.19591863 -21.5 16.1875 C-22.5324119 11.67069795 -21.54576481 7.50085322 -20 3.25 C-14.30473529 -3.1571728 -7.34565795 -4.39270345 0 0 Z " fill="#F8ECE5" transform="translate(629,427)"/>
<path d="M0 0 C3.44346337 2.97390019 6.68618659 5.86606882 7.37109375 10.5234375 C7.55201228 18.29229195 7.55201228 18.29229195 4.5625 22.125 C3.716875 22.74375 2.87125 23.3625 2 24 C1.67 24.33 1.34 24.66 1 25 C-4.28510169 25.64006422 -9.43393098 25.91609634 -14.0625 23 C-17.01578232 20.46759608 -18.38449306 17.94893596 -19.04296875 14.12109375 C-18.96211456 10.12983669 -17.39382648 7.12932099 -15 4 C-9.95754071 -0.01338597 -6.33279377 -1.77318225 0 0 Z " fill="#F8ECE5" transform="translate(869,425)"/>
<path d="M0 0 C0.99 0.495 0.99 0.495 2 1 C3.93551652 6.80654956 3.62023075 12.93256415 1.875 18.75 C-1.48952648 24.58184589 -5.23819934 29.54427701 -11.53125 32.33984375 C-18.41389977 34.18029915 -26.24006446 34.40212722 -32.5625 30.875 C-35.7680776 28.63196724 -35.7680776 28.63196724 -38.6875 29.625 C-39.450625 30.07875 -40.21375 30.5325 -41 31 C-47.61156203 34.14891619 -55.81508655 34.44472048 -62.73828125 32.0546875 C-69.29167669 28.55220052 -75.33194739 23.46115856 -77.5703125 16.1328125 C-78.03042772 13.84896784 -78.13287909 11.76577249 -78.125 9.4375 C-78.12757813 8.67308594 -78.13015625 7.90867187 -78.1328125 7.12109375 C-78 5 -78 5 -77 2 C-76.01 1.67 -75.02 1.34 -74 1 C-74.05800781 1.99 -74.11601563 2.98 -74.17578125 4 C-74.67415928 13.76904404 -74.67415928 13.76904404 -70.625 22.41796875 C-63.88118717 28.98345961 -57.50045647 30.10477517 -48.40234375 30.1328125 C-46.09757792 30.00539455 -44.18048368 29.75205403 -42 29 C-40.24577228 27.02329393 -40.24577228 27.02329393 -39 25 C-34.99390935 25.57229866 -32.43850685 26.93689589 -29 29 C-23.18889706 30.82634664 -16.36004896 30.89058451 -10.6875 28.75 C-9.3571875 27.88375 -9.3571875 27.88375 -8 27 C-7.0925 26.4225 -6.185 25.845 -5.25 25.25 C-1.50934975 21.50934975 -1.05049464 17.23896614 -0.83984375 12.0703125 C-0.87207031 10.76835938 -0.90429688 9.46640625 -0.9375 8.125 C-0.99093765 5.75050986 -1.02072943 3.37500091 -1 1 C-0.67 0.67 -0.34 0.34 0 0 Z " fill="#183448" transform="translate(762,586)"/>
<path d="M0 0 C0.66 0.33 1.32 0.66 2 1 C3.93506914 6.80520742 3.9525628 13.53040939 1.5 19.1875 C1.005 20.115625 0.51 21.04375 0 22 C-0.66 21.67 -1.32 21.34 -2 21 C-1.835 20.33484375 -1.67 19.6696875 -1.5 18.984375 C-0.8970101 15.38527904 -0.92998843 11.88360067 -1 8.25 C-1.04563954 5.82654061 -1.04731552 3.42492024 -1 1 C-0.67 0.67 -0.34 0.34 0 0 Z " fill="#183448" transform="translate(762,586)"/>
<path d="M0 0 C2.625 -0.1875 2.625 -0.1875 5 0 C5.33 2.31 5.66 4.62 6 7 C3.69 6.67 1.38 6.34 -1 6 C-1.33 5.01 -1.66 4.02 -2 3 C-1.34 2.01 -0.68 1.02 0 0 Z " fill="#F8ECE5" transform="translate(597,443)"/>
<path d="M0 0 C1.5 1.1875 1.5 1.1875 3 3 C3.1875 5.6875 3.1875 5.6875 3 8 C0.69 7.67 -1.62 7.34 -4 7 C-3.6875 4.625 -3.6875 4.625 -3 2 C-2.01 1.34 -1.02 0.68 0 0 Z " fill="#F8ECE5" transform="translate(843,442)"/>
<path d="M0 0 C0.33 0 0.66 0 1 0 C1 2.31 1 4.62 1 7 C0.67 7 0.34 7 0 7 C0 4.69 0 2.38 0 0 Z " fill="#FB6C3B" transform="translate(592,1088)"/>
<path d="M0 0 C0.33 0 0.66 0 1 0 C1 1.65 1 3.3 1 5 C0.67 5 0.34 5 0 5 C0 3.35 0 1.7 0 0 Z " fill="#FB6C3B" transform="translate(740,1082)"/>
</svg>
